# xmcd CD database file
#
# Track frame offsets:
#	150
#	12258
#	24894
#	47283
#	70764
#	87351
#	103201
#	133385
#	148552
#	175238
#	195447
#	224547
#	244492
#	264043
#
# Disc length: 3702 seconds
#
# Revision: 3
# Processed by: cddbd v1.5.2PL0 Copyright (c) Steve Scherf et al.
# Submitted via: CDex 1.51
#
DISCID=c10e740e
DTITLE=Various Artist - 2009 Festival International de Jazz de Montreal
DYEAR=2009
DGENRE=Jazz
TTITLE0=Molly Johnson - Lucky
TTITLE1=Sophie Milman - That is Love
TTITLE2=Melody Gardot - Who Will Comfort Me
TTITLE3=Madeleine Peyroux - Instead
TTITLE4=BET.E - Omigod
TTITLE5=Michael Kaeshammer - Lovelight
TTITLE6=The Bad Plus - Radio Cure
TTITLE7=Susan Tedeschi - True
TTITLE8=Julian Lage - Motor Minder
TTITLE9=John Pizzarelli - Oh, How My Heart Beats for You
TTITLE10=Hiromi - XYG
TTITLE11=Alain Caron - Blue Screen
TTITLE12=Brian Blade - Mercy Angel
TTITLE13=Nikki Yanofsky - Frist Lady
EXTD=YEAR: 2009
EXTT0=
EXTT1=
EXTT2=
EXTT3=
EXTT4=
EXTT5=
EXTT6=
EXTT7=
EXTT8=
EXTT9=
EXTT10=
EXTT11=
EXTT12=
EXTT13=
PLAYORDER=
